<svg width="194" height="125" viewBox="0 0 194 125" fill="none" xmlns="http://www.w3.org/2000/svg">
<path d="M30.686 123.908C24.3832 125.331 18.8236 124.992 13.9848 122.893C13.0612 122.491 10.7605 121.162 9.9467 120.56C7.78385 118.959 6.15351 117.275 4.83139 115.275C0.762361 109.119 -0.452865 99.9366 1.35726 89.0163C2.90733 79.667 6.53034 69.8355 13.6479 55.6564C14.6969 53.5696 17.8446 47.445 17.8735 47.4373C17.8842 47.4344 17.7537 47.9214 17.5848 48.5171C16.1248 53.6619 15.2586 59.4932 15.236 64.3468C15.1974 72.1352 17.1054 78.299 20.8437 82.4731C23.4214 85.3482 27.0843 87.4554 30.7618 88.1773C37.1996 89.4402 45.5931 87.4384 55.1401 82.3684C55.7971 82.0184 88.0414 63.504 126.794 41.2247C165.547 18.9443 197.262 0.720666 197.269 0.726707C197.283 0.733194 111.443 68.192 66.8778 103.197C59.8199 108.74 57.919 110.172 54.5242 112.491C45.8464 118.421 37.6958 122.325 30.686 123.908Z" fill="white"/>
</svg>
