<svg width="22" height="21" viewBox="0 0 22 21" fill="none" xmlns="http://www.w3.org/2000/svg">
<path d="M19.8667 2.91608C19.2828 2.20951 18.5494 1.64126 17.7194 1.25226C16.8893 0.863262 15.9834 0.663196 15.0667 0.666478C13.4983 0.618989 11.9714 1.17441 10.8001 2.21848C9.62873 1.17441 8.10179 0.618989 6.5334 0.666478C5.61676 0.663196 4.7108 0.863262 3.88078 1.25226C3.05077 1.64126 2.31736 2.20951 1.7334 2.91608C0.716867 4.14915 -0.3466 6.38168 0.358467 10.0201C1.4838 15.8302 9.9222 20.5982 10.2785 20.7934C10.4373 20.882 10.6161 20.9284 10.7979 20.9284C10.9798 20.9284 11.1586 20.882 11.3174 20.7934C11.6758 20.5939 20.1142 15.8259 21.2374 10.0201C21.9467 6.38168 20.8833 4.14915 19.8667 2.91608ZM19.1478 9.61475C18.3521 13.7225 12.5686 17.5433 10.8001 18.6291C8.30834 17.1251 3.18193 13.3491 2.45767 9.61475C1.91047 6.79235 2.65927 5.15288 3.3846 4.27395C3.76818 3.81113 4.24943 3.43894 4.79383 3.18408C5.33824 2.92921 5.9323 2.79798 6.5334 2.79981C7.17542 2.75166 7.81896 2.8707 8.40128 3.14531C8.98359 3.41992 9.48481 3.84075 9.85607 4.36674C9.94762 4.53521 10.0827 4.67604 10.2472 4.77455C10.4116 4.87307 10.5995 4.92566 10.7913 4.92686C10.983 4.92806 11.1715 4.87781 11.3372 4.78136C11.503 4.68491 11.6398 4.54578 11.7334 4.37848C12.1039 3.84838 12.6062 3.424 13.1908 3.14717C13.7753 2.87034 14.4218 2.75062 15.0667 2.79981C15.6691 2.79688 16.2646 2.92757 16.8104 3.18248C17.3562 3.43738 17.8386 3.81015 18.223 4.27395C18.9462 5.15288 19.695 6.79235 19.1478 9.61475Z" fill="#CFCFCF"/>
</svg>
