<svg width="24" height="25" viewBox="0 0 24 25" fill="none" xmlns="http://www.w3.org/2000/svg">
<path d="M21 4.49999H2V6.49999H4.3L7.58 15.5C7.78631 16.0835 8.16807 16.589 8.67294 16.9471C9.1778 17.3051 9.78106 17.4983 10.4 17.5H19V15.5H10.4C10.1945 15.4999 9.99399 15.4365 9.8258 15.3184C9.6576 15.2003 9.52987 15.0333 9.46 14.84L9 13.5H18.28C18.714 13.4994 19.1361 13.3576 19.4824 13.096C19.8288 12.8344 20.0806 12.4673 20.2 12.05L22 5.76999C22.0406 5.63868 22.0538 5.50039 22.0386 5.36377C22.0234 5.22715 21.9802 5.09512 21.9117 4.97595C21.8432 4.85677 21.7509 4.75299 21.6404 4.6711C21.53 4.58921 21.4039 4.53096 21.27 4.49999C21.1806 4.48543 21.0894 4.48543 21 4.49999ZM18.25 11.5H8.25L6.43 6.49999H19.67L18.25 11.5Z" fill="#CDCDCD"/>
<path d="M10.5 21.5C11.3284 21.5 12 20.8284 12 20C12 19.1716 11.3284 18.5 10.5 18.5C9.67157 18.5 9 19.1716 9 20C9 20.8284 9.67157 21.5 10.5 21.5Z" fill="#CDCDCD"/>
<path d="M16.5 21.5C17.3284 21.5 18 20.8284 18 20C18 19.1716 17.3284 18.5 16.5 18.5C15.6716 18.5 15 19.1716 15 20C15 20.8284 15.6716 21.5 16.5 21.5Z" fill="#CDCDCD"/>
</svg>
